PathFileType	4	(X/Y/Z)	C:\Git\research_data\Projects\torsion_deformities_healthy_kinematics\simulations\TD01\pre\dynamic_13_l\marker_experimental.trc
DataRate	CameraRate	NumFrames	NumMarkers	Units	OrigDataRate	OrigDataStartFrame	OrigNumFrames
200	200	4	30	mm	200	385	513
Frame#	Time	C7			T10			CLAV			STRN			RBAK			LASI			RASI			SACR			RT1			RT2			RT3			RKNE			RS1			RS2			RS3			RANK			RHEE			RTOE			LT1			LT2			LT3			LKNE			LS1			LS2			LS3			LANK			LHEE			LTOE			RHJC			LHJC		
		X1	Y1	Z1	X2	Y2	Z2	X3	Y3	Z3	X4	Y4	Z4	X5	Y5	Z5	X6	Y6	Z6	X7	Y7	Z7	X8	Y8	Z8	X9	Y9	Z9	X10	Y10	Z10	X11	Y11	Z11	X12	Y12	Z12	X13	Y13	Z13	X14	Y14	Z14	X15	Y15	Z15	X16	Y16	Z16	X17	Y17	Z17	X18	Y18	Z18	X19	Y19	Z19	X20	Y20	Z20	X21	Y21	Z21	X22	Y22	Z22	X23	Y23	Z23	X24	Y24	Z24	X25	Y25	Z25	X26	Y26	Z26	X27	Y27	Z27	X28	Y28	Z28	X29	Y29	Z29	X30	Y30	Z30	

385	1.920000	1642.874023	1236.921265	203.727356	1603.067261	1050.037598	194.981903	1762.600586	1188.463501	202.289261	1810.762085	1055.825073	198.889862	1610.222290	1159.466675	298.330811	1755.895996	841.230896	103.678436	1728.088623	856.741272	304.047089	1582.003052	887.878296	179.427505	1653.940796	653.138184	333.632111	1603.971436	608.658752	331.685181	1651.909180	588.652710	318.826691	1590.444336	462.577423	299.304169	1493.057617	361.247528	319.779846	1449.144775	312.612274	308.112274	1496.457031	296.017670	305.653442	1383.915283	127.057549	274.988342	1336.214111	135.312378	223.631821	1506.080322	64.503082	251.156372	1752.662598	652.500061	59.420300	1747.626221	586.608459	63.350140	1794.577759	603.434875	77.780884	1819.346436	465.511902	95.689545	1822.949341	319.731415	76.388832	1841.008911	256.679474	88.478439	1881.552979	289.244598	82.892143	1926.314331	97.359795	114.271652	1902.760010	76.909721	164.041946	2073.454834	135.219376	116.852829	1666.567381	796.724012	272.623756	1686.921342	785.370995	125.961368	
386	1.925000	1649.448608	1236.336304	203.162216	1609.846191	1049.347412	194.570557	1769.284302	1187.983521	201.697083	1817.588623	1055.413696	198.280884	1616.842529	1158.805542	297.732117	1763.160767	840.783264	103.413696	1735.278442	855.946838	303.700684	1589.113281	887.093933	179.097610	1660.805542	652.375000	333.356171	1610.725830	607.956177	331.526764	1658.618896	587.842773	318.652405	1596.927368	461.724213	299.470062	1498.037964	361.572815	319.975037	1453.376343	313.550964	308.444244	1500.438110	296.291962	305.811523	1385.345459	128.927872	275.543182	1337.822144	138.147278	224.243561	1506.348022	64.448311	251.199905	1761.317505	652.805908	59.834728	1756.942749	586.962219	63.633923	1803.545044	604.238892	78.855392	1826.964355	465.184753	96.098763	1829.390259	318.809570	77.253426	1846.869873	255.641266	89.633926	1887.752563	287.800598	83.779617	1931.052979	96.201546	115.569618	1906.987305	76.330482	165.115921	2078.354492	131.834869	119.267044	1673.835924	795.927311	272.178463	1694.245703	784.827619	125.568986	
387	1.930000	1656.040405	1235.800171	202.589706	1616.645142	1048.708130	194.170502	1775.983521	1187.555542	201.090607	1824.442505	1055.063232	197.644379	1623.489868	1158.198853	297.124481	1770.420898	840.436035	103.112442	1742.541992	855.183289	303.315826	1596.237427	886.364197	178.815765	1667.853271	651.620178	333.056305	1617.693481	607.235291	331.362274	1665.548462	587.038879	318.467773	1603.725830	460.829498	299.679932	1503.261108	361.932404	320.210815	1457.830078	314.557343	308.809662	1504.631958	296.614075	306.032684	1386.940674	130.922379	276.145935	1339.653931	141.169083	224.894196	1506.638916	64.371727	251.231262	1769.981079	653.238892	60.190372	1766.281738	587.415771	63.908524	1812.535400	605.154053	79.850502	1834.804565	464.994598	96.532616	1835.952881	318.046356	78.091850	1852.718018	254.728317	90.720070	1894.003296	286.409912	84.732086	1935.353760	95.050743	116.768982	1910.587769	75.843353	165.997513	2082.857666	127.806152	121.924522	1681.173437	795.169476	271.701579	1701.581840	784.373935	125.145208	
388	1.935000	1662.648804	1235.316162	202.011734	1623.461304	1048.124023	193.781906	1782.696533	1187.182129	200.471649	1831.321411	1054.775635	196.982483	1630.163696	1157.651123	296.510712	1777.671021	840.193665	102.775757	1749.871582	854.456665	302.893372	1603.370483	885.693726	178.580658	1675.087769	650.877258	332.731903	1624.885132	606.494812	331.191589	1672.711670	586.245911	318.275574	1610.854126	459.893951	299.938477	1508.747925	362.330963	320.489075	1462.531006	315.636993	309.206360	1509.062134	296.988647	306.323334	1388.731689	133.044495	276.795044	1341.750977	144.384171	225.577637	1506.951538	64.266609	251.244873	1778.609863	653.776428	60.478779	1775.554199	587.942993	64.173531	1821.478394	606.128784	80.731758	1842.840210	464.945343	96.995598	1842.673950	317.472412	78.882637	1858.619263	253.981552	91.698250	1900.344849	285.132141	85.750435	1939.286621	93.956718	117.853195	1913.648804	75.488091	166.675308	2087.025391	123.235886	124.773323	1688.572672	794.456208	271.193550	1708.924190	784.014496	124.690690	
